#!OML:ASF H:\Dans Jumps\Project 1\Capture day 1\Session 1\subject.ASF
:FULLY-SPECIFIED
:DEGREES
349
root 0.586089 17.8947 6.72833 8.7332 -4.70793 -1.14138
lowerback 1.06029 -0.150175 -1.78248
upperback 3.57978 -0.217099 1.15272
thorax 3.09533 -0.178777 2.18112
lowerneck -11.5392 1.08132 -1.54506
upperneck 31.1069 1.5065 1.248
head 12.1027 0.630477 0.939544
rclavicle -1.53685e-014 6.01324e-015
rhumerus -28.2249 -6.38392 -79.243
rradius 30.0814
rwrist 37.5957
rhand -19.5333 -26.865
rfingers 7.12502
rthumb 6.79034 -56.7362
lclavicle -1.53685e-014 6.01324e-015
lhumerus -24.0755 3.76373 79.2867
lradius 17.4364
lwrist 5.35995
lhand -24.5845 -6.40601
lfingers 7.12502
lthumb 1.91289 23.5652
rfemur -18.5681 0.631188 18.1991
rtibia 24.4991
rfoot -9.56235 0.243747
rtoes 15.0497
lfemur -17.2792 8.25506 -18.9255
ltibia 21.8543
lfoot -6.33 3.92113
ltoes -0.996619
350
root 0.590518 17.8881 6.77647 8.69517 -4.6994 -1.10724
lowerback 0.913207 -0.182014 -1.85368
upperback 3.61369 -0.256814 1.15391
thorax 3.21604 -0.202394 2.22137
lowerneck -11.5311 1.1035 -1.52808
upperneck 31.2966 1.55084 1.19313
head 12.1779 0.643284 0.924024
rclavicle 1.86361e-015 2.48481e-016
rhumerus -28.4638 -6.90799 -79.0186
rradius 29.6532
rwrist 38.0128
rhand -19.2342 -26.8689
rfingers 7.12502
rthumb 7.0791 -56.7306
lclavicle 1.86361e-015 2.48481e-016
lhumerus -23.9954 4.35978 79.0637
lradius 17.2518
lwrist 5.38613
lhand -24.6432 -6.33869
lfingers 7.12502
lthumb 1.85614 23.633
rfemur -18.1522 0.688805 18.168
rtibia 24.1351
rfoot -9.72264 0.0230432
rtoes 15.0312
lfemur -16.8696 8.31864 -18.969
ltibia 21.5143
lfoot -6.51393 3.86808
ltoes -1.11033
351
root 0.594926 17.8786 6.82225 8.65721 -4.68696 -1.07034
lowerback 0.786839 -0.206903 -1.92875
upperback 3.6458 -0.287435 1.16082
thorax 3.32298 -0.221601 2.26978
lowerneck -11.5387 1.12056 -1.5005
upperneck 31.4941 1.59052 1.12354
head 12.2603 0.653348 0.900676
rclavicle 1.44243e-014 1.98785e-016
rhumerus -28.6892 -7.47965 -78.7684
rradius 29.2052
rwrist 38.4446
rhand -18.9182 -26.881
rfingers 7.12502
rthumb 7.38414 -56.7322
lclavicle 1.44243e-014 1.98785e-016
lhumerus -23.9015 4.96888 78.8667
lradius 17.0535
lwrist 5.33786
lhand -24.7484 -6.30162
lfingers 7.12502
lthumb 1.75459 23.6709
rfemur -17.7712 0.76823 18.1254
rtibia 23.8358
rfoot -9.92393 -0.199838
rtoes 14.8868
lfemur -16.5087 8.37804 -19.0141
ltibia 21.2532
lfoot -6.75 3.81745
ltoes -1.25537
352
root 0.599038 17.8665 6.86497 8.62671 -4.67295 -1.06234
lowerback 0.686319 -0.222607 -1.97986
upperback 3.67103 -0.306747 1.18268
thorax 3.40761 -0.234447 2.32038
lowerneck -11.5546 1.13443 -1.46549
upperneck 31.6924 1.62685 1.04609
head 12.3455 0.661814 0.872615
rclavicle 5.26779e-015 -1.37161e-014
rhumerus -28.912 -8.0917 -78.4897
rradius 28.7423
rwrist 38.902
rhand -18.5868 -26.8926
rfingers 7.12502
rthumb 7.70403 -56.7322
lclavicle 5.26779e-015 -1.37161e-014
lhumerus -23.7901 5.59336 78.6925
lradius 16.8417
lwrist 5.17601
lhand -24.913 -6.32336
lfingers 7.12502
lthumb 1.59559 23.6504
rfemur -17.4244 0.895095 18.1055
rtibia 23.5792
rfoot -10.1524 -0.437539
rtoes 14.6677
lfemur -16.2043 8.4308 -19.024
ltibia 21.0688
lfoot -7.02738 3.77428
ltoes -1.42327
353
root 0.602873 17.8527 6.90526 8.60025 -4.66537 -1.07888
lowerback 0.603789 -0.229741 -2.00919
upperback 3.69611 -0.315414 1.21373
thorax 3.48129 -0.2414 2.36851
lowerneck -11.5831 1.15 -1.42507
upperneck 31.8821 1.66394 0.971583
head 12.4303 0.671707 0.844771
rclavicle 7.4917e-015 1.19271e-014
rhumerus -29.1207 -8.74066 -78.194
rradius 28.2634
rwrist 39.3954
rhand -18.2368 -26.8868
rfingers 7.12502
rthumb 8.04182 -56.7138
lclavicle 7.4917e-015 1.19271e-014
lhumerus -23.6609 6.21303 78.5413
lradius 16.619
lwrist 4.91285
lhand -25.1518 -6.40927
lfingers 7.12502
lthumb 1.36492 23.5661
rfemur -17.0991 1.0554 18.1034
rtibia 23.3446
rfoot -10.3961 -0.667463
rtoes 14.3965
lfemur -15.9481 8.47337 -19.0033
ltibia 20.9603
lfoot -7.34052 3.75027
ltoes -1.61603
354
root 0.60625 17.8375 6.94301 8.57709 -4.65992 -1.1153
lowerback 0.547464 -0.231073 -2.01978
upperback 3.71587 -0.317197 1.25023
thorax 3.53416 -0.244152 2.41198
lowerneck -11.6195 1.16672 -1.39128
upperneck 32.0639 1.69713 0.920823
head 12.5136 0.68216 0.826509
rclavicle -1.39025e-014 1.57537e-014
rhumerus -29.3241 -9.41859 -77.889
rradius 27.7726
rwrist 39.9192
rhand -17.8764 -26.8563
rfingers 7.12502
rthumb 8.38961 -56.6697
lclavicle -1.39025e-014 1.57537e-014
lhumerus -23.5238 6.81032 78.4136
lradius 16.396
lwrist 4.57723
lhand -25.4311 -6.49693
lfingers 7.12502
lthumb 1.09521 23.48
rfemur -16.7897 1.23208 18.1172
rtibia 23.1168
rfoot -10.6443 -0.882705
rtoes 14.0988
lfemur -15.7389 8.5027 -18.9563
ltibia 20.9218
lfoot -7.67589 3.74558
ltoes -1.8305
355
root 0.60911 17.8217 6.97824 8.55817 -4.66286 -1.17701
lowerback 0.514206 -0.224618 -2.00322
upperback 3.73103 -0.309482 1.2892
thorax 3.56844 -0.241094 2.44306
lowerneck -11.6517 1.18012 -1.36001
upperneck 32.2274 1.71969 0.89012
head 12.5886 0.690336 0.814592
rclavicle 2.79914e-014 -2.40032e-014
rhumerus -29.5247 -10.1181 -77.5828
rradius 27.2728
rwrist 40.4623
rhand -17.5205 -26.8044
rfingers 7.12502
rthumb 8.73307 -56.6038
lclavicle 2.79914e-014 -2.40032e-014
lhumerus -23.3795 7.33899 78.3163
lradius 16.182
lwrist 4.23171
lhand -25.7685 -6.60802
lfingers 7.12502
lthumb 0.769306 23.3703
rfemur -16.4968 1.41499 18.1543
rtibia 22.8906
rfoot -10.8872 -1.07037
rtoes 13.7969
lfemur -15.5682 8.52032 -18.878
ltibia 20.9351
lfoot -8.01677 3.76807
ltoes -2.04871
356
root 0.611493 17.8059 7.01126 8.54345 -4.66959 -1.23895
lowerback 0.495746 -0.214302 -1.97883
upperback 3.74222 -0.296762 1.32018
thorax 3.58981 -0.234941 2.46167
lowerneck -11.6837 1.19452 -1.33486
upperneck 32.3799 1.73427 0.893208
head 12.659 0.698676 0.815453
rclavicle -1.24489e-014 -5.41688e-015
rhumerus -29.7231 -10.8264 -77.2882
rradius 26.7694
rwrist 41.0025
rhand -17.1764 -26.7307
rfingers 7.12502
rthumb 9.06515 -56.5159
lclavicle -1.24489e-014 -5.41688e-015
lhumerus -23.2362 7.75941 78.2582
lradius 15.984
lwrist 3.93237
lhand -26.148 -6.72341
lfingers 7.12502
lthumb 0.402833 23.256
rfemur -16.22 1.57375 18.1895
rtibia 22.6657
rfoot -11.1247 -1.21212
rtoes 13.5287
lfemur -15.4281 8.52181 -18.798
ltibia 20.9817
lfoot -8.34911 3.81924
ltoes -2.26484
